<?xml version="1.0" standalone="no"?>
<!DOCTYPE svg PUBLIC "-//W3C//DTD SVG 20010904//EN"
 "http://www.w3.org/TR/2001/REC-SVG-20010904/DTD/svg10.dtd">
<svg version="1.0" xmlns="http://www.w3.org/2000/svg"
 width="472.000000pt" height="472.000000pt" viewBox="0 0 472.000000 472.000000"
 preserveAspectRatio="xMidYMid meet">
<metadata>
Created by potrace 1.11, written by Peter Selinger 2001-2013
</metadata>
<g transform="translate(0.000000,472.000000) scale(0.100000,-0.100000)"
fill="#000000" stroke="none">
<path d="M799 4477 c-147 -27 -252 -70 -354 -142 -81 -58 -195 -183 -195 -215
0 -5 -3 -10 -8 -10 -12 0 -55 -109 -72 -186 -15 -65 -17 -116 -35 -659 -4
-130 -13 -375 -20 -550 -7 -211 -16 -465 -20 -602 -4 -123 -10 -277 -20 -500
-2 -50 0 -71 8 -66 6 4 7 1 1 -8 -11 -19 -11 -10 -19 -225 -4 -104 -8 -209 -9
-234 -2 -25 2 -53 7 -64 6 -13 6 -16 -2 -12 -8 5 -10 -10 -7 -51 7 -98 17
-167 24 -173 4 -3 7 -11 8 -17 2 -29 4 -34 13 -29 5 4 7 -3 4 -14 -3 -11 0
-26 6 -33 6 -8 8 -17 4 -20 -3 -4 -1 -7 5 -7 7 0 12 -9 12 -20 0 -11 5 -20 10
-20 6 0 10 -5 10 -11 0 -27 127 -179 149 -179 7 0 9 -5 6 -10 -3 -5 -1 -10 6
-10 6 0 20 -10 30 -22 11 -11 19 -17 19 -12 0 5 6 2 13 -6 24 -31 230 -120
244 -106 4 3 12 1 19 -5 7 -5 36 -12 66 -14 29 -2 53 -4 53 -5 0 -7 57 -5 61
2 3 4 11 5 17 1 19 -12 327 -10 327 2 0 7 3 7 8 0 8 -12 640 -14 659 -2 6 4
14 4 16 0 6 -10 2143 -8 2205 2 52 7 149 38 191 60 17 8 32 14 33 13 2 -1 29
15 62 36 64 43 159 132 198 186 35 48 88 147 88 165 0 8 4 15 8 15 4 0 8 8 9
18 1 9 8 45 16 79 18 73 17 164 -8 778 -2 61 -7 193 -10 295 -3 102 -8 232
-10 290 -3 58 -7 177 -10 265 -3 88 -7 210 -10 270 -3 61 -7 184 -10 275 -3
91 -7 215 -10 275 -12 298 -18 453 -17 488 0 20 -4 37 -9 37 -6 0 -7 6 -2 13
11 17 12 57 1 63 -4 3 -6 9 -3 13 15 26 -82 271 -108 271 -6 0 -8 3 -4 6 8 8
-17 38 -102 121 -41 40 -80 73 -87 73 -7 0 -14 3 -16 8 -3 8 -132 73 -151 76
-7 1 -16 4 -22 8 -9 5 -77 20 -155 33 -53 9 -93 10 -112 2 -10 -3 -20 -1 -24
5 -4 7 -9 6 -15 -3 -5 -8 -9 -9 -9 -4 0 12 -89 14 -107 2 -6 -4 -15 -3 -18 3
-5 8 -11 7 -21 -1 -8 -6 -14 -7 -14 -2 0 13 -63 11 -72 -2 -5 -7 -8 -7 -8 0 0
6 -29 11 -70 11 -38 0 -70 -4 -70 -9 0 -5 -8 -3 -17 4 -15 12 -16 12 -10 -6 6
-17 5 -18 -5 -5 -11 12 -42 15 -165 15 -97 0 -153 -3 -153 -10 0 -7 -3 -6 -8
0 -4 6 -20 11 -37 11 -16 0 -33 -5 -37 -11 -5 -6 -8 -7 -8 0 0 12 -138 14
-156 2 -6 -3 -14 -3 -18 1 -4 4 -37 7 -72 7 -53 0 -63 -3 -59 -15 4 -13 4 -13
-7 0 -15 18 -139 23 -150 6 -5 -7 -8 -6 -8 3 0 10 -3 11 -13 2 -8 -6 -17 -8
-21 -4 -11 11 -226 9 -226 -2 0 -6 -3 -6 -8 0 -9 13 -1327 14 -1393 2z m2016
-36 c-9 -8 -36 -10 -30 -2 2 4 11 8 20 8 8 0 13 -3 10 -6z m195 -42 c0 -5 -4
-9 -8 -9 -5 0 -9 7 -9 15 0 8 4 12 9 9 4 -3 8 -9 8 -15z m333 6 c-3 -9 -8 -14
-10 -11 -3 3 -2 9 2 15 9 16 15 13 8 -4z m-135 -150 c-3 -3 -9 2 -12 12 -6 14
-5 15 5 6 7 -7 10 -15 7 -18z m-363 -54 c3 -5 2 -12 -3 -15 -5 -3 -9 1 -9 9 0
17 3 19 12 6z m-235 -161 c0 -5 -2 -10 -4 -10 -3 0 -8 5 -11 10 -3 6 -1 10 4
10 6 0 11 -4 11 -10z m-80 -156 c0 -8 -19 -13 -24 -6 -3 5 1 9 9 9 8 0 15 -2
15 -3z m-247 -39 c-3 -9 -8 -14 -10 -11 -3 3 -2 9 2 15 9 16 15 13 8 -4z m521
-3 c3 -5 -1 -9 -9 -9 -8 0 -12 4 -9 9 3 4 7 8 9 8 2 0 6 -4 9 -8z m-834 -42
c0 -5 -2 -10 -4 -10 -3 0 -8 5 -11 10 -3 6 -1 10 4 10 6 0 11 -4 11 -10z m-39
-37 c13 -16 12 -17 -3 -4 -10 7 -18 15 -18 17 0 8 8 3 21 -13z m-36 -43 c-3
-5 -12 -10 -18 -10 -7 0 -6 4 3 10 19 12 23 12 15 0z m-120 -60 c-3 -5 -12
-10 -18 -10 -7 0 -6 4 3 10 19 12 23 12 15 0z m245 -14 c0 -2 -8 -10 -17 -17
-16 -13 -17 -12 -4 4 13 16 21 21 21 13z m67 -13 c0 -9 -4 -10 -14 -2 -7 6
-13 12 -13 14 0 1 6 2 13 2 8 0 14 -6 14 -14z m-417 -17 c0 -2 -8 -10 -17 -17
-16 -13 -17 -12 -4 4 13 16 21 21 21 13z m294 -22 c3 -8 2 -12 -4 -9 -6 3 -10
10 -10 16 0 14 7 11 14 -7z m6 -58 c0 -2 -8 -10 -17 -17 -16 -13 -17 -12 -4 4
13 16 21 21 21 13z m1844 -54 c3 -5 -1 -9 -9 -9 -8 0 -12 4 -9 9 3 4 7 8 9 8
2 0 6 -4 9 -8z m-84 -78 c0 -8 -19 -13 -24 -6 -3 5 1 9 9 9 8 0 15 -2 15 -3z
m-600 -440 c0 -8 -19 -13 -24 -6 -3 5 1 9 9 9 8 0 15 -2 15 -3z m-30 -200 c0
-8 -19 -13 -24 -6 -3 5 1 9 9 9 8 0 15 -2 15 -3z m-2515 -283 c3 -5 2 -12 -3
-15 -5 -3 -9 1 -9 9 0 17 3 19 12 6z m-260 -189 c-3 -3 -11 0 -18 7 -9 10 -8
11 6 5 10 -3 15 -9 12 -12z m-124 -219 c13 -16 12 -17 -3 -4 -10 7 -18 15 -18
17 0 8 8 3 21 -13z m246 -108 c0 -8 -4 -12 -9 -9 -5 3 -6 10 -3 15 9 13 12 11
12 -6z m47 -23 c3 -5 -1 -9 -9 -9 -8 0 -12 4 -9 9 3 4 7 8 9 8 2 0 6 -4 9 -8z
m1474 -27 c-3 -3 -9 2 -12 12 -6 14 -5 15 5 6 7 -7 10 -15 7 -18z m-1821 -550
c0 -8 -4 -12 -9 -9 -5 3 -6 10 -3 15 9 13 12 11 12 -6z m181 -30 c-3 -3 -9 2
-12 12 -6 14 -5 15 5 6 7 -7 10 -15 7 -18z m953 -148 c-10 -9 -11 -8 -5 6 3
10 9 15 12 12 3 -3 0 -11 -7 -18z m-431 -507 c0 -5 -5 -10 -11 -10 -5 0 -7 5
-4 10 3 6 8 10 11 10 2 0 4 -4 4 -10z m-240 -154 c0 -3 -4 -8 -10 -11 -5 -3
-10 -1 -10 4 0 6 5 11 10 11 6 0 10 -2 10 -4z"/>
</g>
</svg>
